<?xml version="1.0" ?><!DOCTYPE svg  PUBLIC '-//W3C//DTD SVG 1.1//EN'  'http://www.w3.org/Graphics/SVG/1.1/DTD/svg11.dtd'><svg height="32px" id="Capa_1" style="enable-background:new 0 0 32 32;" version="1.1" viewBox="0 0 32 32" width="32px" xml:space="preserve" xmlns="http://www.w3.org/2000/svg" xmlns:xlink="http://www.w3.org/1999/xlink"><style type="text/css">
	.st0{fill:#8D9CA0;}
	.st1{opacity:0.4;}
	.st2{fill:#545454;}
	.st3{fill:#DD5D3A;}
	.st4{opacity:0.4;fill:#FFFFFF;}
</style><path class="st0" d="M29,20v11H3V20c0-2.43,0.71-4.57,2.01-6.29C7.2,10.76,11.09,9,16,9s8.8,1.76,10.99,4.71  C28.29,15.43,29,17.57,29,20z"/><g class="st1"><path class="st2" d="M26.99,13.71L16.35,24.35c-0.09,0.1-0.22,0.15-0.35,0.15s-0.26-0.05-0.35-0.15L5.01,13.71   C7.2,10.76,11.09,9,16,9S24.8,10.76,26.99,13.71z"/></g><path class="st2" d="M17,8.036V5h-2v3.036C7.189,8.409,2,13.112,2,20v12h28V20C30,13.112,24.811,8.409,17,8.036z M28,30H4V20  c0-6.075,4.71-10,12-10s12,3.925,12,10V30z"/><path class="st3" d="M19,3c0,1.65-1.35,3-3,3s-3-1.35-3-3c0-1.65,1.35-3,3-3S19,1.35,19,3z"/><circle class="st4" cx="15" cy="2" r="1.5"/><g><path class="st3" d="M10,24c-2.206,0-4-1.794-4-4c0-0.6,0.13-1.178,0.387-1.719L6.994,17l5.994,5.994l-1.26,0.614   C11.204,23.864,10.606,24,10,24z"/><path class="st3" d="M22,24c-0.609,0-1.191-0.13-1.73-0.388l-1.278-0.609l6.014-6l0.608,1.277C25.87,18.82,26,19.398,26,20   C26,22.206,24.206,24,22,24z"/><path class="st2" d="M13.54,22.12l-5.66-5.66c-0.39-0.39-1.03-0.39-1.42,0C5.52,17.41,5,18.66,5,20c0,2.76,2.24,5,5,5   c1.34,0,2.59-0.52,3.54-1.46C13.93,23.14,13.93,22.51,13.54,22.12z M10,23c-1.65,0-3-1.35-3-3c0-0.46,0.1-0.89,0.29-1.29l4,4   C10.9,22.9,10.46,23,10,23z"/><path class="st2" d="M25.54,16.47c-0.39-0.39-1.03-0.39-1.42,0l-5.66,5.65c-0.39,0.39-0.39,1.02,0,1.41C19.4,24.48,20.66,25,22,25   c2.76,0,5-2.24,5-5C27,18.67,26.48,17.41,25.54,16.47z M22,23c-0.46,0-0.9-0.1-1.3-0.29l4.01-4C24.9,19.11,25,19.54,25,20   C25,21.65,23.65,23,22,23z"/></g><g><path class="st2" d="M16,25c-2.347,0-3.575,1.16-3.707,1.293c-0.386,0.386-0.385,1.004-0.005,1.396   c0.378,0.393,1.009,0.403,1.408,0.029C13.727,27.689,14.481,27,16,27s2.273,0.689,2.293,0.707C18.488,27.902,18.744,28,19,28   s0.512-0.098,0.707-0.293c0.391-0.391,0.391-1.023,0-1.414C19.575,26.16,18.347,25,16,25z"/></g><g/><g/><g/><g/><g/><g/></svg>