<?xml version="1.0" ?><!DOCTYPE svg  PUBLIC '-//W3C//DTD SVG 1.1//EN'  'http://www.w3.org/Graphics/SVG/1.1/DTD/svg11.dtd'><svg height="32px" id="Capa_1" style="enable-background:new 0 0 32 32;" version="1.1" viewBox="0 0 32 32" width="32px" xml:space="preserve" xmlns="http://www.w3.org/2000/svg" xmlns:xlink="http://www.w3.org/1999/xlink"><style type="text/css">
	.st0{fill:#8D9CA0;}
	.st1{opacity:0.4;}
	.st2{fill:#545454;}
	.st3{opacity:0.4;fill:#FFFFFF;}
	.st4{fill:#38E0E0;}
</style><path class="st0" d="M3,31V20C3,13.421,8.224,9,16,9s13,4.421,13,11v11H3z"/><g class="st1"><path class="st2" d="M3.041,19C3.539,12.906,8.566,9,16,9s12.461,3.906,12.959,10L29,20H3L3.041,19z"/></g><path class="st2" d="M17,8.036V5h-2v3.036C7.189,8.409,2,13.112,2,20v12h28V20C30,13.112,24.811,8.409,17,8.036z M28,30H4V20  c0-6.075,4.71-10,12-10s12,3.925,12,10V30z"/><path class="st0" d="M19,3c0,1.65-1.35,3-3,3s-3-1.35-3-3c0-1.65,1.35-3,3-3S19,1.35,19,3z"/><circle class="st3" cx="15" cy="2" r="1.5"/><path class="st4" d="M14.5,20c0,2.484-2.016,4.5-4.5,4.5c-1.242,0-2.367-0.504-3.186-1.314C6.004,22.367,5.5,21.242,5.5,20  c0-2.484,2.016-4.5,4.5-4.5c1.242,0,2.367,0.504,3.186,1.314C13.996,17.633,14.5,18.758,14.5,20z"/><path class="st3" d="M13.186,16.814l-6.372,6.372C6.004,22.367,5.5,21.242,5.5,20c0-2.484,2.016-4.5,4.5-4.5  C11.242,15.5,12.367,16.004,13.186,16.814z"/><path class="st4" d="M26.5,20c0,2.484-2.016,4.5-4.5,4.5c-1.242,0-2.367-0.504-3.186-1.314C18.004,22.367,17.5,21.242,17.5,20  c0-2.484,2.016-4.5,4.5-4.5c1.242,0,2.367,0.504,3.186,1.314C25.996,17.633,26.5,18.758,26.5,20z"/><path class="st3" d="M25.186,16.814l-6.372,6.372C18.004,22.367,17.5,21.242,17.5,20c0-2.484,2.016-4.5,4.5-4.5  C23.242,15.5,24.367,16.004,25.186,16.814z"/><path class="st2" d="M19.71,26.71C19.51,26.9,19.26,27,19,27s-0.51-0.1-0.71-0.29C18.27,26.69,17.52,26,16,26s-2.27,0.69-2.3,0.72  c-0.4,0.37-1.03,0.36-1.41-0.03c-0.38-0.39-0.38-1.01,0-1.4C12.43,25.16,13.65,24,16,24s3.58,1.16,3.71,1.29  C20.1,25.68,20.1,26.32,19.71,26.71z"/><path class="st2" d="M22,17c1.654,0,3,1.346,3,3s-1.346,3-3,3s-3-1.346-3-3S20.346,17,22,17 M22,15c-2.761,0-5,2.239-5,5  s2.239,5,5,5s5-2.239,5-5S24.761,15,22,15L22,15z M10,17c1.654,0,3,1.346,3,3s-1.346,3-3,3s-3-1.346-3-3S8.346,17,10,17 M10,15  c-2.761,0-5,2.239-5,5s2.239,5,5,5s5-2.239,5-5S12.761,15,10,15L10,15z"/><polygon class="st4" points="8,22 8,32 6,32 6,24 "/><polygon class="st4" points="24,22 24,32 26,32 26,24 "/><g/><g/><g/><g/><g/><g/></svg>