<?xml version="1.0" ?><!DOCTYPE svg  PUBLIC '-//W3C//DTD SVG 1.1//EN'  'http://www.w3.org/Graphics/SVG/1.1/DTD/svg11.dtd'><svg height="32px" id="Capa_1" style="enable-background:new 0 0 32 32;" version="1.1" viewBox="0 0 32 32" width="32px" xml:space="preserve" xmlns="http://www.w3.org/2000/svg" xmlns:xlink="http://www.w3.org/1999/xlink"><style type="text/css">
	.st0{fill:#8D9CA0;}
	.st1{opacity:0.4;}
	.st2{fill:#545454;}
	.st3{fill:#38E0E0;}
	.st4{opacity:0.4;fill:#FFFFFF;}
	.st5{fill:#CF3BDB;}
</style><g><path class="st0" d="M3,31V20C3,13.421,8.224,9,16,9s13,4.421,13,11v11H3z"/><g class="st1"><path class="st2" d="M3.041,19C3.539,12.906,8.566,9,16,9s12.461,3.906,12.959,10L29,20H3L3.041,19z"/></g><path class="st2" d="M17,8.036V5h-2v3.036C7.189,8.409,2,13.112,2,20v12h28V20C30,13.112,24.811,8.409,17,8.036z M28,30H4V20   c0-6.075,4.71-10,12-10s12,3.925,12,10V30z"/><path class="st3" d="M14.5,20c0,2.484-2.016,4.5-4.5,4.5c-1.242,0-2.367-0.504-3.186-1.314C6.004,22.367,5.5,21.242,5.5,20   c0-2.484,2.016-4.5,4.5-4.5c1.242,0,2.367,0.504,3.186,1.314C13.996,17.633,14.5,18.758,14.5,20z"/><path class="st4" d="M13.186,16.814l-6.372,6.372C6.004,22.367,5.5,21.242,5.5,20c0-2.484,2.016-4.5,4.5-4.5   C11.242,15.5,12.367,16.004,13.186,16.814z"/><path class="st3" d="M26.5,20c0,2.484-2.016,4.5-4.5,4.5c-1.242,0-2.367-0.504-3.186-1.314C18.004,22.367,17.5,21.242,17.5,20   c0-2.484,2.016-4.5,4.5-4.5c1.242,0,2.367,0.504,3.186,1.314C25.996,17.633,26.5,18.758,26.5,20z"/><path class="st4" d="M25.186,16.814l-6.372,6.372C18.004,22.367,17.5,21.242,17.5,20c0-2.484,2.016-4.5,4.5-4.5   C23.242,15.5,24.367,16.004,25.186,16.814z"/><path class="st3" d="M19,3c0,1.65-1.35,3-3,3s-3-1.35-3-3c0-1.65,1.35-3,3-3S19,1.35,19,3z"/><g><g><path class="st2" d="M10,17c0.801,0,1.559,0.313,2.118,0.866C12.687,18.441,13,19.199,13,20c0,1.654-1.346,3-3,3     c-0.801,0-1.559-0.313-2.118-0.866C7.313,21.559,7,20.801,7,20C7,18.346,8.346,17,10,17 M10,15c-2.76,0-5,2.24-5,5     c0,1.38,0.56,2.63,1.46,3.54C7.37,24.44,8.62,25,10,25c2.76,0,5-2.24,5-5c0-1.38-0.56-2.63-1.46-3.54C12.63,15.56,11.38,15,10,15     L10,15z"/></g></g><g><g><path class="st2" d="M22,17c0.801,0,1.559,0.313,2.118,0.866C24.687,18.441,25,19.199,25,20c0,1.654-1.346,3-3,3     c-0.801,0-1.559-0.313-2.118-0.866C19.313,21.559,19,20.801,19,20C19,18.346,20.346,17,22,17 M22,15c-2.76,0-5,2.24-5,5     c0,1.38,0.56,2.63,1.46,3.54C19.37,24.44,20.62,25,22,25c2.76,0,5-2.24,5-5c0-1.38-0.56-2.63-1.46-3.54     C24.63,15.56,23.38,15,22,15L22,15z"/></g></g><circle class="st4" cx="15" cy="2" r="1.5"/></g><g><path class="st5" d="M19,30c-1.104,0-2-0.896-2-2v-1.5l4-0.5v2C21,29.104,20.104,30,19,30z"/></g><g><path class="st2" d="M19.318,25.269C19.31,25.276,18.444,26,16,26c-2.374,0-3.258-0.683-3.315-0.729   c-0.392-0.368-1.008-0.361-1.392,0.021c-0.391,0.391-0.391,1.023,0,1.414C11.509,26.923,12.75,28,16,28   c3.25,0,4.491-1.077,4.707-1.293c0.381-0.381,0.378-0.981,0.012-1.376C20.35,24.937,19.725,24.916,19.318,25.269z"/></g><g/><g/><g/><g/><g/><g/></svg>