<?xml version="1.0" ?><!DOCTYPE svg  PUBLIC '-//W3C//DTD SVG 1.1//EN'  'http://www.w3.org/Graphics/SVG/1.1/DTD/svg11.dtd'><svg height="32px" id="Capa_1" style="enable-background:new 0 0 32 32;" version="1.1" viewBox="0 0 32 32" width="32px" xml:space="preserve" xmlns="http://www.w3.org/2000/svg" xmlns:xlink="http://www.w3.org/1999/xlink"><style type="text/css">
	.st0{fill:#8D9CA0;}
	.st1{opacity:0.4;}
	.st2{fill:#545454;}
	.st3{fill:#38E0E0;}
	.st4{opacity:0.4;fill:#FFFFFF;}
</style><path class="st0" d="M3,31V20C3,13.421,8.224,9,16,9s13,4.421,13,11v11H3z"/><g class="st1"><path class="st2" d="M3.041,19C3.539,12.906,8.566,9,16,9s12.461,3.906,12.959,10L29,20H3L3.041,19z"/></g><path class="st2" d="M17,8.036V5h-2v3.036C7.189,8.409,2,13.112,2,20v12h28V20C30,13.112,24.811,8.409,17,8.036z M28,30H4V20  c0-6.075,4.71-10,12-10s12,3.925,12,10V30z"/><path class="st3" d="M19,3c0,1.65-1.35,3-3,3s-3-1.35-3-3c0-1.65,1.35-3,3-3S19,1.35,19,3z"/><circle class="st4" cx="15" cy="2" r="1.5"/><g><path class="st2" d="M19,18c0.256,0,0.512-0.098,0.707-0.293c0.391-0.391,0.391-1.023,0-1.414C19.575,16.161,18.347,15,16,15   s-3.575,1.161-3.707,1.293c-0.386,0.386-0.385,1.004-0.005,1.396c0.378,0.392,1.009,0.402,1.408,0.029   C13.727,17.689,14.481,17,16,17c1.497,0,2.251,0.67,2.303,0.717C18.496,17.905,18.748,18,19,18z"/></g><path class="st3" d="M14.5,23c0,2.484-2.016,4.5-4.5,4.5c-1.242,0-2.367-0.504-3.186-1.314C6.004,25.367,5.5,24.242,5.5,23  c0-2.484,2.016-4.5,4.5-4.5c1.242,0,2.367,0.504,3.186,1.314C13.996,20.633,14.5,21.758,14.5,23z"/><path class="st4" d="M13.186,19.814l-6.372,6.372C6.004,25.367,5.5,24.242,5.5,23c0-2.484,2.016-4.5,4.5-4.5  C11.242,18.5,12.367,19.004,13.186,19.814z"/><path class="st3" d="M26.5,23c0,2.484-2.016,4.5-4.5,4.5c-1.242,0-2.367-0.504-3.186-1.314C18.004,25.367,17.5,24.242,17.5,23  c0-2.484,2.016-4.5,4.5-4.5c1.242,0,2.367,0.504,3.186,1.314C25.996,20.633,26.5,21.758,26.5,23z"/><path class="st4" d="M25.186,19.814l-6.372,6.372C18.004,25.367,17.5,24.242,17.5,23c0-2.484,2.016-4.5,4.5-4.5  C23.242,18.5,24.367,19.004,25.186,19.814z"/><path class="st2" d="M22,20c1.654,0,3,1.346,3,3s-1.346,3-3,3s-3-1.346-3-3S20.346,20,22,20 M22,18c-2.761,0-5,2.239-5,5  s2.239,5,5,5s5-2.239,5-5S24.761,18,22,18L22,18z M10,20c1.654,0,3,1.346,3,3s-1.346,3-3,3s-3-1.346-3-3S8.346,20,10,20 M10,18  c-2.761,0-5,2.239-5,5s2.239,5,5,5s5-2.239,5-5S12.761,18,10,18L10,18z"/><g/><g/><g/><g/><g/><g/></svg>