<?xml version="1.0" ?><!DOCTYPE svg  PUBLIC '-//W3C//DTD SVG 1.1//EN'  'http://www.w3.org/Graphics/SVG/1.1/DTD/svg11.dtd'><svg height="32px" id="Capa_1" style="enable-background:new 0 0 32 32;" version="1.1" viewBox="0 0 32 32" width="32px" xml:space="preserve" xmlns="http://www.w3.org/2000/svg" xmlns:xlink="http://www.w3.org/1999/xlink"><style type="text/css">
	.st0{fill:#8D9CA0;}
	.st1{fill:#FFFFFF;}
	.st2{opacity:0.4;}
	.st3{fill:#545454;}
	.st4{fill:#38E0E0;}
	.st5{opacity:0.4;fill:#FFFFFF;}
</style><path class="st0" d="M3,31V20C3,13.421,8.224,9,16,9s13,4.421,13,11v11H3z"/><path class="st1" d="M16,28c-3.921,0-5.945-1.256-6.953-2.309c-0.277-0.29-0.354-0.716-0.197-1.084S9.37,24,9.77,24h12.47  c0.399,0,0.761,0.237,0.919,0.604c0.157,0.367,0.082,0.793-0.192,1.083C21.969,26.742,19.95,28,16,28z"/><g class="st2"><path class="st3" d="M29,20h-3.13c-0.44-1.73-2.01-3-3.87-3s-3.43,1.27-3.87,3h-4.26c-0.44-1.73-2.01-3-3.87-3s-3.43,1.27-3.87,3H3   l0.04-1C3.54,12.91,8.57,9,16,9s12.46,3.91,12.96,10L29,20z"/></g><path class="st3" d="M17,8.036V5h-2v3.036C7.189,8.409,2,13.112,2,20v12h28V20C30,13.112,24.811,8.409,17,8.036z M28,30H4V20  c0-6.075,4.71-10,12-10s12,3.925,12,10V30z"/><path class="st4" d="M19,3c0,1.65-1.35,3-3,3s-3-1.35-3-3c0-1.65,1.35-3,3-3S19,1.35,19,3z"/><circle class="st5" cx="15" cy="2" r="1.5"/><g><path class="st3" d="M10,18c1.654,0,3,1.346,3,3h2c0-2.757-2.243-5-5-5s-5,2.243-5,5h2C7,19.346,8.346,18,10,18z"/><path class="st3" d="M22,16c-2.757,0-5,2.243-5,5h2c0-1.654,1.346-3,3-3s3,1.346,3,3h2C27,18.243,24.757,16,22,16z"/><path class="st3" d="M24.79,23.38C24.6,23.14,24.31,23,24,23H8c-0.31,0-0.6,0.14-0.79,0.38c-0.19,0.25-0.25,0.56-0.18,0.86   C7.08,24.44,8.31,29,16,29s8.92-4.56,8.97-4.76C25.04,23.94,24.98,23.63,24.79,23.38z M16,27c-3.56,0-5.35-1.08-6.23-2h12.47   C21.37,25.92,19.57,27,16,27z"/></g><g/><g/><g/><g/><g/><g/></svg>