<?xml version="1.0" ?><!DOCTYPE svg  PUBLIC '-//W3C//DTD SVG 1.1//EN'  'http://www.w3.org/Graphics/SVG/1.1/DTD/svg11.dtd'><svg height="32px" id="Capa_1" style="enable-background:new 0 0 32 32;" version="1.1" viewBox="0 0 32 32" width="32px" xml:space="preserve" xmlns="http://www.w3.org/2000/svg" xmlns:xlink="http://www.w3.org/1999/xlink"><style type="text/css">
	.st0{fill:#8D9CA0;}
	.st1{opacity:0.4;}
	.st2{fill:#545454;}
	.st3{fill:#CF3BDB;}
	.st4{opacity:0.4;fill:#FFFFFF;}
</style><path class="st0" d="M3,31V20C3,13.421,8.224,9,16,9s13,4.421,13,11v11H3z"/><g class="st1"><path class="st2" d="M3.041,19C3.539,12.906,8.566,9,16,9s12.461,3.906,12.959,10L29,20H3L3.041,19z"/></g><path class="st3" d="M9.487,23.702C8.185,22.904,6,21.234,6,19.01C6.026,17.78,6.811,17,8,17s1.974,0.776,2,1.979  C10.026,17.78,10.811,17,12,17s1.974,0.776,2,1.979c0,2.433-2.657,4.231-3.472,4.726l-0.521,0.316L9.487,23.702z"/><path class="st3" d="M21.487,23.702C20.185,22.904,18,21.234,18,19.01C18.026,17.78,18.811,17,20,17c1.188,0,1.974,0.776,2,1.979  C22.026,17.78,22.811,17,24,17c1.188,0,1.974,0.776,2,1.979c0,2.433-2.657,4.231-3.472,4.726l-0.521,0.316L21.487,23.702z"/><path class="st2" d="M17,8.036V5h-2v3.036C7.189,8.409,2,13.112,2,20v12h28V20C30,13.112,24.811,8.409,17,8.036z M28,30H4V20  c0-6.075,4.71-10,12-10s12,3.925,12,10V30z"/><path class="st3" d="M19,3c0,1.65-1.35,3-3,3s-3-1.35-3-3c0-1.65,1.35-3,3-3S19,1.35,19,3z"/><circle class="st4" cx="15" cy="2" r="1.5"/><g><path class="st2" d="M18.305,25.281C18.273,25.311,17.519,26,16,26c-1.497,0-2.251-0.67-2.303-0.717   c-0.392-0.38-1.017-0.378-1.404,0.01c-0.391,0.391-0.391,1.023,0,1.414C12.425,26.84,13.653,28,16,28s3.575-1.16,3.707-1.293   c0.386-0.386,0.385-1.004,0.006-1.396C19.332,24.919,18.704,24.908,18.305,25.281z"/><path class="st2" d="M12,16c-0.88,0-1.53,0.29-2,0.7C9.53,16.29,8.88,16,8,16c-2.2,0-3,1.79-3,3c0,3.58,4.37,5.8,4.55,5.89   C9.69,24.96,9.85,25,10,25s0.31-0.04,0.45-0.11C10.63,24.8,15,22.58,15,19C15,17.79,14.2,16,12,16z M10.01,22.85   C9.08,22.28,7,20.81,7,19.01C7.01,18.55,7.19,18,8,18s0.99,0.55,1,1c0,0.55,0.44,0.99,0.99,0.99c0.55,0.04,1-0.43,1.01-0.98   c0.01-0.46,0.19-1.01,1-1.01s0.99,0.55,1,1C13,20.68,11.13,22.17,10.01,22.85z"/><path class="st2" d="M24,16c-0.88,0-1.53,0.29-2,0.7c-0.47-0.41-1.12-0.7-2-0.7c-2.2,0-3,1.79-3,3c0,3.58,4.37,5.8,4.55,5.89   C21.69,24.96,21.85,25,22,25s0.31-0.04,0.45-0.11C22.63,24.8,27,22.58,27,19C27,17.79,26.2,16,24,16z M22.01,22.85   C21.08,22.28,19,20.81,19,19.01c0.01-0.46,0.19-1.01,1-1.01s0.99,0.55,1,1c0,0.55,0.44,0.99,0.99,0.99c0.56,0.04,1-0.43,1.01-0.98   c0.01-0.46,0.19-1.01,1-1.01s0.99,0.55,1,1C25,20.68,23.13,22.17,22.01,22.85z"/></g><g/><g/><g/><g/><g/><g/></svg>