<?xml version="1.0" ?><!DOCTYPE svg  PUBLIC '-//W3C//DTD SVG 1.1//EN'  'http://www.w3.org/Graphics/SVG/1.1/DTD/svg11.dtd'><svg height="32px" id="Capa_1" style="enable-background:new 0 0 32 32;" version="1.1" viewBox="0 0 32 32" width="32px" xml:space="preserve" xmlns="http://www.w3.org/2000/svg" xmlns:xlink="http://www.w3.org/1999/xlink"><style type="text/css">
	.st0{fill:#8D9CA0;}
	.st1{opacity:0.4;}
	.st2{fill:#545454;}
	.st3{fill:#FFFFFF;}
	.st4{fill:#38E0E0;}
	.st5{opacity:0.4;fill:#FFFFFF;}
</style><path class="st0" d="M3,31V20C3,13.421,8.224,9,16,9s13,4.421,13,11v11H3z"/><g class="st1"><path class="st2" d="M3.041,19C3.539,12.906,8.566,9,16,9s12.461,3.906,12.959,10L29,20H3L3.041,19z"/></g><path class="st3" d="M22,24c-2.206,0-4-1.794-4-4s1.794-4,4-4s4,1.794,4,4S24.206,24,22,24z M14,20c0-2.206-1.794-4-4-4  s-4,1.794-4,4s1.794,4,4,4S14,22.206,14,20z"/><g><g><path class="st2" d="M17,8.036V5h-2v3.036C7.189,8.409,2,13.112,2,20v12h28V20C30,13.112,24.811,8.409,17,8.036z M16,10    c6.453,0,10.878,3.08,11.81,8h-1.23c-0.78-1.76-2.53-3-4.58-3s-3.8,1.24-4.58,3h-2.84c-0.78-1.76-2.53-3-4.58-3s-3.8,1.24-4.58,3    H4.19C5.122,13.08,9.547,10,16,10z M25,20c0,1.65-1.35,3-3,3s-3-1.35-3-3c0-1.65,1.35-3,3-3S25,18.35,25,20z M13,20    c0,1.65-1.35,3-3,3s-3-1.35-3-3c0-1.65,1.35-3,3-3S13,18.35,13,20z M28,30H4V20h1c0,2.76,2.24,5,5,5s5-2.24,5-5h2    c0,2.76,2.24,5,5,5s5-2.24,5-5h1V30z"/><path class="st2" d="M18.3,25.28C18.27,25.31,17.52,26,16,26c-1.5,0-2.25-0.67-2.3-0.72c-0.39-0.38-1.02-0.37-1.41,0.01    c-0.39,0.39-0.39,1.03,0,1.42C12.43,26.84,13.65,28,16,28s3.58-1.16,3.71-1.29c0.38-0.39,0.38-1.01,0-1.4S18.7,24.91,18.3,25.28z"/></g><path class="st2" d="M19.71,26.71C19.58,26.84,18.35,28,16,28s-3.57-1.16-3.71-1.29c-0.39-0.39-0.39-1.03,0-1.42   c0.39-0.38,1.02-0.39,1.41-0.01C13.75,25.33,14.5,26,16,26c1.52,0,2.27-0.69,2.3-0.72c0.4-0.37,1.03-0.36,1.41,0.03   S20.09,26.32,19.71,26.71z"/></g><path class="st4" d="M19,3c0,1.65-1.35,3-3,3s-3-1.35-3-3c0-1.65,1.35-3,3-3S19,1.35,19,3z"/><circle class="st5" cx="15" cy="2" r="1.5"/><g/><g/><g/><g/><g/><g/></svg>