<?xml version="1.0" ?><!DOCTYPE svg  PUBLIC '-//W3C//DTD SVG 1.1//EN'  'http://www.w3.org/Graphics/SVG/1.1/DTD/svg11.dtd'><svg height="32px" id="Capa_1" style="enable-background:new 0 0 32 32;" version="1.1" viewBox="0 0 32 32" width="32px" xml:space="preserve" xmlns="http://www.w3.org/2000/svg" xmlns:xlink="http://www.w3.org/1999/xlink"><style type="text/css">
	.st0{fill:#8D9CA0;}
	.st1{opacity:0.4;}
	.st2{fill:#545454;}
	.st3{fill:#38E0E0;}
	.st4{opacity:0.4;fill:#FFFFFF;}
</style><path class="st0" d="M3,31V20C3,13.421,8.224,9,16,9s13,4.421,13,11v11H3z"/><g class="st1"><path class="st2" d="M3.041,19C3.539,12.906,8.566,9,16,9s12.461,3.906,12.959,10L29,20H3L3.041,19z"/></g><g><path class="st2" d="M22,24c-2.206,0-4-1.794-4-4s1.794-4,4-4s4,1.794,4,4S24.206,24,22,24z"/><path class="st2" d="M17,8.036V5h-2v3.036C7.189,8.409,2,13.112,2,20v12h28V20C30,13.112,24.811,8.409,17,8.036z M28,30H4V20   c0-3.368,1.453-6.072,3.986-7.816l9.304,6.206C17.11,18.9,17,19.44,17,20c0,2.76,2.24,5,5,5c1.27,0,2.41-0.49,3.29-1.27L28,25.519   V30z M19,20c0-1.65,1.35-3,3-3s3,1.35,3,3c0,1.65-1.35,3-3,3S19,21.65,19,20z M28,23.116l-1.5-0.986C26.81,21.48,27,20.77,27,20   c0-2.76-2.24-5-5-5c-1.47,0-2.78,0.65-3.7,1.67l-8.349-5.558C11.668,10.39,13.706,10,16,10c7.29,0,12,3.925,12,10V23.116z"/></g><path class="st3" d="M14.5,20c0,2.484-2.016,4.5-4.5,4.5c-1.242,0-2.367-0.504-3.186-1.314C6.004,22.367,5.5,21.242,5.5,20  c0-2.484,2.016-4.5,4.5-4.5c1.242,0,2.367,0.504,3.186,1.314C13.996,17.633,14.5,18.758,14.5,20z"/><path class="st2" d="M16,28c-2.347,0-3.575-1.16-3.707-1.293c-0.391-0.391-0.391-1.023,0-1.414c0.387-0.388,1.013-0.391,1.404-0.01  C13.749,25.33,14.503,26,16,26c1.519,0,2.273-0.689,2.304-0.719c0.399-0.374,1.03-0.362,1.408,0.029  c0.379,0.393,0.38,1.011-0.005,1.396C19.575,26.84,18.347,28,16,28z"/><path class="st4" d="M13.186,16.814l-6.372,6.372C6.004,22.367,5.5,21.242,5.5,20c0-2.484,2.016-4.5,4.5-4.5  C11.242,15.5,12.367,16.004,13.186,16.814z"/><path class="st3" d="M19,3c0,1.65-1.35,3-3,3s-3-1.35-3-3c0-1.65,1.35-3,3-3S19,1.35,19,3z"/><circle class="st4" cx="15" cy="2" r="1.5"/><path class="st2" d="M10,17c1.654,0,3,1.346,3,3s-1.346,3-3,3s-3-1.346-3-3S8.346,17,10,17 M10,15c-2.761,0-5,2.239-5,5s2.239,5,5,5  s5-2.239,5-5S12.761,15,10,15L10,15z"/><g/><g/><g/><g/><g/><g/></svg>