<?xml version="1.0" ?><!DOCTYPE svg  PUBLIC '-//W3C//DTD SVG 1.1//EN'  'http://www.w3.org/Graphics/SVG/1.1/DTD/svg11.dtd'><svg height="32px" id="Capa_1" style="enable-background:new 0 0 32 32;" version="1.1" viewBox="0 0 32 32" width="32px" xml:space="preserve" xmlns="http://www.w3.org/2000/svg" xmlns:xlink="http://www.w3.org/1999/xlink"><style type="text/css">
	.st0{fill:#8D9CA0;}
	.st1{opacity:0.4;}
	.st2{fill:#545454;}
	.st3{fill:#38E0E0;}
	.st4{opacity:0.4;fill:#FFFFFF;}
</style><g><path class="st0" d="M3,31V20C3,13.421,8.224,9,16,9s13,4.421,13,11v11H3z"/><g class="st1"><path class="st2" d="M3.041,19C3.539,12.906,8.566,9,16,9s12.461,3.906,12.959,10L29,20H3L3.041,19z"/></g><path class="st2" d="M17,8.036V5h-2v3.036C7.189,8.409,2,13.112,2,20v12h28V20C30,13.112,24.811,8.409,17,8.036z M28,30H4V20   c0-6.075,4.71-10,12-10s12,3.925,12,10V30z"/><path class="st3" d="M14.5,20c0,2.484-2.016,4.5-4.5,4.5c-1.242,0-2.367-0.504-3.186-1.314C6.004,22.367,5.5,21.242,5.5,20   c0-2.484,2.016-4.5,4.5-4.5c1.242,0,2.367,0.504,3.186,1.314C13.996,17.633,14.5,18.758,14.5,20z"/><path class="st4" d="M13.186,16.814l-6.372,6.372C6.004,22.367,5.5,21.242,5.5,20c0-2.484,2.016-4.5,4.5-4.5   C11.242,15.5,12.367,16.004,13.186,16.814z"/><path class="st3" d="M26.5,20c0,2.484-2.016,4.5-4.5,4.5c-1.242,0-2.367-0.504-3.186-1.314C18.004,22.367,17.5,21.242,17.5,20   c0-2.484,2.016-4.5,4.5-4.5c1.242,0,2.367,0.504,3.186,1.314C25.996,17.633,26.5,18.758,26.5,20z"/><path class="st4" d="M25.186,16.814l-6.372,6.372C18.004,22.367,17.5,21.242,17.5,20c0-2.484,2.016-4.5,4.5-4.5   C23.242,15.5,24.367,16.004,25.186,16.814z"/><path class="st3" d="M19,3c0,1.65-1.35,3-3,3s-3-1.35-3-3c0-1.65,1.35-3,3-3S19,1.35,19,3z"/><circle class="st4" cx="15" cy="2" r="1.5"/></g><g><path class="st2" d="M15.553,26.105c-0.966,0.483-2.458-0.489-2.904-0.867c-0.418-0.356-1.048-0.309-1.408,0.111   c-0.359,0.419-0.311,1.051,0.108,1.41c0.111,0.095,2.743,2.313,5.098,1.135c1.326-0.663,2.834,0.801,2.846,0.813   C19.488,28.902,19.744,29,20,29s0.512-0.098,0.707-0.293c0.391-0.391,0.391-1.023,0-1.414   C20.604,27.189,18.163,24.799,15.553,26.105z"/></g><path class="st2" d="M22,17c1.654,0,3,1.346,3,3s-1.346,3-3,3s-3-1.346-3-3S20.346,17,22,17 M22,15c-2.761,0-5,2.239-5,5  s2.239,5,5,5s5-2.239,5-5S24.761,15,22,15L22,15z M10,17c1.654,0,3,1.346,3,3s-1.346,3-3,3s-3-1.346-3-3S8.346,17,10,17 M10,15  c-2.761,0-5,2.239-5,5s2.239,5,5,5s5-2.239,5-5S12.761,15,10,15L10,15z"/><g/><g/><g/><g/><g/><g/></svg>