<?xml version="1.0" ?><!DOCTYPE svg  PUBLIC '-//W3C//DTD SVG 1.1//EN'  'http://www.w3.org/Graphics/SVG/1.1/DTD/svg11.dtd'><svg height="32px" id="Capa_1" style="enable-background:new 0 0 32 32;" version="1.1" viewBox="0 0 32 32" width="32px" xml:space="preserve" xmlns="http://www.w3.org/2000/svg" xmlns:xlink="http://www.w3.org/1999/xlink"><style type="text/css">
	.st0{fill:#8D9CA0;}
	.st1{opacity:0.4;}
	.st2{fill:#545454;}
	.st3{opacity:0.4;fill:#FFFFFF;}
</style><path class="st0" d="M3,31V20C3,13.421,8.224,9,16,9s13,4.421,13,11v11H3z"/><g class="st1"><path class="st2" d="M3.041,19C3.539,12.906,8.566,9,16,9s12.461,3.906,12.959,10L29,20H3L3.041,19z"/></g><g><path class="st2" d="M17,8.036V5h-2v3.036C7.189,8.409,2,13.112,2,20v12h28V20C30,13.112,24.811,8.409,17,8.036z M28,30H4V20   c0-6.075,4.71-10,12-10s12,3.925,12,10V30z"/><polygon class="st2" points="13.707,22.293 11.414,20 13.707,17.707 12.293,16.293 10,18.586 7.707,16.293 6.293,17.707 8.586,20    6.293,22.293 7.707,23.707 10,21.414 12.293,23.707  "/><path class="st2" d="M19,25h-6c-0.552,0-1,0.447-1,1s0.448,1,1,1h6c0.553,0,1-0.447,1-1S19.553,25,19,25z"/><polygon class="st2" points="24.293,16.293 22,18.586 19.707,16.293 18.293,17.707 20.586,20 18.293,22.293 19.707,23.707    22,21.414 24.293,23.707 25.707,22.293 23.414,20 25.707,17.707  "/></g><path class="st0" d="M19,3c0,1.65-1.35,3-3,3s-3-1.35-3-3c0-1.65,1.35-3,3-3S19,1.35,19,3z"/><circle class="st3" cx="15" cy="2" r="1.5"/><g/><g/><g/><g/><g/><g/></svg>