<?xml version="1.0" ?><!DOCTYPE svg  PUBLIC '-//W3C//DTD SVG 1.1//EN'  'http://www.w3.org/Graphics/SVG/1.1/DTD/svg11.dtd'><svg height="32px" id="Capa_1" style="enable-background:new 0 0 32 32;" version="1.1" viewBox="0 0 32 32" width="32px" xml:space="preserve" xmlns="http://www.w3.org/2000/svg" xmlns:xlink="http://www.w3.org/1999/xlink"><style type="text/css">
	.st0{fill:#8D9CA0;}
	.st1{opacity:0.4;}
	.st2{fill:#545454;}
	.st3{fill:#38E0E0;}
	.st4{opacity:0.4;fill:#FFFFFF;}
</style><path class="st0" d="M3,31V20C3,13.421,8.224,9,16,9s13,4.421,13,11v11H3z"/><g class="st1"><path class="st2" d="M3.041,19C3.539,12.906,8.566,9,16,9s12.461,3.906,12.959,10L29,20H3L3.041,19z"/></g><path class="st2" d="M17,8.036V5h-2v3.036C7.189,8.409,2,13.112,2,20v12h28V20C30,13.112,24.811,8.409,17,8.036z M28,30H4V20  c0-6.075,4.71-10,12-10s12,3.925,12,10V30z"/><path class="st3" d="M19,3c0,1.65-1.35,3-3,3s-3-1.35-3-3c0-1.65,1.35-3,3-3S19,1.35,19,3z"/><circle class="st4" cx="15" cy="2" r="1.5"/><g><path class="st2" d="M13,23h2c0-2.757-2.243-5-5-5s-5,2.243-5,5h2c0-1.654,1.346-3,3-3S13,21.346,13,23z"/><path class="st2" d="M22,18c-2.757,0-5,2.243-5,5h2c0-1.654,1.346-3,3-3s3,1.346,3,3h2C27,20.243,24.757,18,22,18z"/><path class="st2" d="M18.305,25.281C18.273,25.311,17.519,26,16,26c-1.497,0-2.251-0.67-2.303-0.717   c-0.392-0.38-1.017-0.378-1.404,0.01c-0.391,0.391-0.391,1.023,0,1.414C12.425,26.84,13.653,28,16,28s3.575-1.16,3.707-1.293   c0.386-0.386,0.385-1.004,0.006-1.396C19.332,24.919,18.704,24.908,18.305,25.281z"/></g><g/><g/><g/><g/><g/><g/></svg>