<?xml version="1.0" ?><!DOCTYPE svg  PUBLIC '-//W3C//DTD SVG 1.1//EN'  'http://www.w3.org/Graphics/SVG/1.1/DTD/svg11.dtd'><svg height="32px" id="Capa_1" style="enable-background:new 0 0 32 32;" version="1.1" viewBox="0 0 32 32" width="32px" xml:space="preserve" xmlns="http://www.w3.org/2000/svg" xmlns:xlink="http://www.w3.org/1999/xlink"><style type="text/css">
	.st0{fill:#8D9CA0;}
	.st1{fill:#545454;}
	.st2{opacity:0.4;fill:#FFFFFF;}
	.st3{fill:#CF3BDB;}
	.st4{opacity:0.4;fill:#545454;}
</style><path class="st0" d="M3,31V20C3,13.421,8.224,9,16,9s13,4.421,13,11v11H3z"/><path class="st1" d="M17,8.036V5h-2v3.036C7.189,8.409,2,13.112,2,20v12h28V20C30,13.112,24.811,8.409,17,8.036z M28,30H4V20  c0-6.075,4.71-10,12-10s12,3.925,12,10V30z"/><path class="st0" d="M19,3c0,1.65-1.35,3-3,3s-3-1.35-3-3c0-1.65,1.35-3,3-3S19,1.35,19,3z"/><circle class="st2" cx="15" cy="2" r="1.5"/><g><path class="st1" d="M15,19h-2c0,1.654-1.346,3-3,3s-3-1.346-3-3H5c0,2.757,2.243,5,5,5S15,21.757,15,19z"/><path class="st1" d="M22,22c-1.654,0-3-1.346-3-3h-2c0,2.757,2.243,5,5,5s5-2.243,5-5h-2C25,20.654,23.654,22,22,22z"/><circle class="st3" cx="16" cy="26" r="2"/><path class="st1" d="M16,23c-1.65,0-3,1.35-3,3c0,1.65,1.35,3,3,3s3-1.35,3-3C19,24.35,17.65,23,16,23z M16,27c-0.55,0-1-0.45-1-1   s0.45-1,1-1s1,0.45,1,1S16.55,27,16,27z"/></g><path class="st4" d="M29,20l-0.041-1C28.461,12.906,23.434,9,16,9S3.539,12.906,3.041,19L3,20h3.141c0.446,1.722,1.997,3,3.859,3  s3.412-1.278,3.859-3h4.283c0.446,1.722,1.997,3,3.859,3s3.412-1.278,3.859-3H29z"/><g/><g/><g/><g/><g/><g/></svg>