<?xml version="1.0" ?><!DOCTYPE svg  PUBLIC '-//W3C//DTD SVG 1.1//EN'  'http://www.w3.org/Graphics/SVG/1.1/DTD/svg11.dtd'><svg height="32px" id="Capa_1" style="enable-background:new 0 0 32 32;" version="1.1" viewBox="0 0 32 32" width="32px" xml:space="preserve" xmlns="http://www.w3.org/2000/svg" xmlns:xlink="http://www.w3.org/1999/xlink"><style type="text/css">
	.st0{fill:#8D9CA0;}
	.st1{opacity:0.4;fill:#545454;}
	.st2{fill:#545454;}
	.st3{fill:#38E0E0;}
	.st4{opacity:0.4;fill:#FFFFFF;}
</style><path class="st0" d="M29,20v11H3V20c0-0.94,0.11-1.84,0.32-2.69C4.55,12.24,9.34,9,16,9s11.45,3.24,12.68,8.31  C28.89,18.16,29,19.06,29,20z"/><path class="st1" d="M28.68,17.31L16,22.64L3.32,17.31C4.55,12.24,9.34,9,16,9S27.45,12.24,28.68,17.31z"/><path class="st2" d="M17,8.036V5h-2v3.036C7.189,8.409,2,13.112,2,20v12h28V20C30,13.112,24.811,8.409,17,8.036z M28,30H4V20  c0-6.075,4.71-10,12-10s12,3.925,12,10V30z"/><path class="st3" d="M19,3c0,1.65-1.35,3-3,3s-3-1.35-3-3c0-1.65,1.35-3,3-3S19,1.35,19,3z"/><circle class="st4" cx="15" cy="2" r="1.5"/><g><path class="st2" d="M14.5,20.5c0-0.403-0.243-0.768-0.615-0.923l-6-2.5c-0.511-0.213-1.095,0.029-1.308,0.538   c-0.212,0.51,0.028,1.096,0.538,1.308L10.9,20.5l-3.785,1.577c-0.51,0.212-0.75,0.798-0.538,1.308C6.737,23.769,7.109,24,7.5,24   c0.128,0,0.258-0.024,0.384-0.077l6-2.5C14.257,21.268,14.5,20.903,14.5,20.5z"/><path class="st2" d="M25.423,17.615c-0.213-0.51-0.798-0.751-1.308-0.538l-6,2.5c-0.372,0.155-0.615,0.52-0.615,0.923   s0.243,0.768,0.615,0.923l6,2.5C24.241,23.976,24.371,24,24.5,24c0.392,0,0.763-0.231,0.923-0.615   c0.213-0.51-0.028-1.096-0.538-1.308L21.1,20.5l3.785-1.577C25.395,18.711,25.636,18.125,25.423,17.615z"/><path class="st2" d="M20,25c-1.236,0-1.907,0.336-2.447,0.605C17.095,25.835,16.764,26,16,26s-1.095-0.165-1.553-0.395   C13.908,25.336,13.236,25,12,25c-2.347,0-3.575,1.16-3.707,1.293c-0.386,0.386-0.385,1.004-0.005,1.396   c0.378,0.393,1.009,0.403,1.408,0.029C9.727,27.689,10.481,27,12,27c0.764,0,1.095,0.165,1.553,0.395   C14.092,27.664,14.764,28,16,28c1.236,0,1.907-0.336,2.447-0.605C18.905,27.165,19.236,27,20,27c1.519,0,2.273,0.689,2.293,0.707   C22.488,27.902,22.744,28,23,28s0.512-0.098,0.707-0.293c0.391-0.391,0.391-1.023,0-1.414C23.575,26.16,22.347,25,20,25z"/></g><g/><g/><g/><g/><g/><g/></svg>