<?xml version="1.0" ?><!DOCTYPE svg  PUBLIC '-//W3C//DTD SVG 1.1//EN'  'http://www.w3.org/Graphics/SVG/1.1/DTD/svg11.dtd'><svg height="32px" id="Capa_1" style="enable-background:new 0 0 32 32;" version="1.1" viewBox="0 0 32 32" width="32px" xml:space="preserve" xmlns="http://www.w3.org/2000/svg" xmlns:xlink="http://www.w3.org/1999/xlink"><style type="text/css">
	.st0{fill:#8D9CA0;}
	.st1{opacity:0.4;}
	.st2{fill:#545454;}
	.st3{fill:#CF3BDB;}
	.st4{opacity:0.4;fill:#FFFFFF;}
	.st5{fill:#38E0E0;}
</style><path class="st0" d="M3,31V20C3,13.421,8.224,9,16,9s13,4.421,13,11v11H3z"/><g class="st1"><path class="st2" d="M3.041,19C3.539,12.906,8.566,9,16,9s12.461,3.906,12.959,10L29,20H3L3.041,19z"/></g><path class="st3" d="M21.5,24c-2.536,0-3.471-1.604-3.5-2.979V18c0-0.553,0.447-1,1-1h5c0.553,0,1,0.447,1,1v3  C25,22.038,24.269,24,21.5,24z M14,21v-3c0-0.553-0.448-1-1-1H8c-0.552,0-1,0.447-1,1v3.021C7.029,22.396,7.963,24,10.5,24  C13.269,24,14,22.038,14,21z"/><path class="st4" d="M14,20H7v-3h7V20z M25,17h-7v3h7V17z"/><g><path class="st2" d="M17,8.036V5h-2v3.036C7.189,8.409,2,13.112,2,20v12h28V20C30,13.112,24.811,8.409,17,8.036z M16,10   c6.453,0,10.878,3.08,11.81,8H26v-2h-9v2h-2v-2H6v2H4.19C5.122,13.08,9.547,10,16,10z M24,18v3c0,0.21-0.07,2-2.5,2   c-2.28,0-2.49-1.54-2.5-2v-3H24z M13,18v3c0,0.21-0.07,2-2.5,2c-2.28,0-2.49-1.54-2.5-2v-3H13z M28,30H4V20h2v1   c0,1.11,0.81,4,4.5,4s4.5-2.89,4.5-4v-1h2v1c0,1.11,0.81,4,4.5,4s4.5-2.89,4.5-4v-1h2V30z"/><path class="st2" d="M18.3,25.28C18.27,25.31,17.52,26,16,26c-1.5,0-2.25-0.67-2.3-0.72c-0.39-0.38-1.02-0.37-1.41,0.01   c-0.39,0.39-0.39,1.03,0,1.42C12.43,26.84,13.65,28,16,28s3.58-1.16,3.71-1.29c0.38-0.39,0.38-1.01,0-1.4S18.7,24.91,18.3,25.28z"/></g><path class="st5" d="M19,3c0,1.65-1.35,3-3,3s-3-1.35-3-3c0-1.65,1.35-3,3-3S19,1.35,19,3z"/><circle class="st4" cx="15" cy="2" r="1.5"/><g/><g/><g/><g/><g/><g/></svg>