<?xml version="1.0" ?><!DOCTYPE svg  PUBLIC '-//W3C//DTD SVG 1.1//EN'  'http://www.w3.org/Graphics/SVG/1.1/DTD/svg11.dtd'><svg height="32px" id="Capa_1" style="enable-background:new 0 0 32 32;" version="1.1" viewBox="0 0 32 32" width="32px" xml:space="preserve" xmlns="http://www.w3.org/2000/svg" xmlns:xlink="http://www.w3.org/1999/xlink"><style type="text/css">
	.st0{fill:#8D9CA0;}
	.st1{opacity:0.4;}
	.st2{fill:#545454;}
	.st3{fill:#CF3BDB;}
	.st4{fill:#38E0E0;}
	.st5{opacity:0.4;fill:#FFFFFF;}
</style><path class="st0" d="M3,31V20C3,13.421,8.224,9,16,9s13,4.421,13,11v11H3z"/><g class="st1"><path class="st2" d="M3.041,19C3.539,12.906,8.566,9,16,9s12.461,3.906,12.959,10L29,20H3L3.041,19z"/></g><circle class="st3" cx="16" cy="25" r="2"/><path class="st4" d="M6.979,26C5.777,25.975,5,25.189,5,24c0-1.136,0.646-2.272,1.188-3.024C6.376,20.714,6.678,20.56,7,20.56  s0.624,0.154,0.812,0.416C8.354,21.728,9,22.864,9,24c0,1.189-0.777,1.975-1.979,2C7.014,26,7.007,26,7,26S6.986,26,6.979,26z"/><path class="st2" d="M17,8.036V5h-2v3.036C7.189,8.409,2,13.112,2,20v12h28V20C30,13.112,24.811,8.409,17,8.036z M28,30H4V20  c0-6.075,4.71-10,12-10s12,3.925,12,10V30z"/><path class="st0" d="M19,3c0,1.65-1.35,3-3,3s-3-1.35-3-3c0-1.65,1.35-3,3-3S19,1.35,19,3z"/><circle class="st5" cx="15" cy="2" r="1.5"/><g><path class="st2" d="M14,19H6v0.61C5.37,20.32,4,22.07,4,24c0,2.2,1.79,3,3,3s3-0.8,3-3c0-1.11-0.46-2.17-0.97-3H14V19z M7,25   c-0.46-0.01-1-0.2-1-1c0-0.83,0.51-1.76,1-2.44c0.49,0.68,1,1.61,1,2.44C8,24.8,7.46,24.99,7,25z"/><rect class="st2" height="2" width="8" x="18" y="19"/><path class="st2" d="M16,22c-1.65,0-3,1.35-3,3c0,1.65,1.35,3,3,3s3-1.35,3-3C19,23.35,17.65,22,16,22z M16,26c-0.55,0-1-0.45-1-1   s0.45-1,1-1s1,0.45,1,1S16.55,26,16,26z"/></g><g/><g/><g/><g/><g/><g/></svg>