<?xml version="1.0" ?><!DOCTYPE svg  PUBLIC '-//W3C//DTD SVG 1.1//EN'  'http://www.w3.org/Graphics/SVG/1.1/DTD/svg11.dtd'><svg height="32px" id="Capa_1" style="enable-background:new 0 0 32 32;" version="1.1" viewBox="0 0 32 32" width="32px" xml:space="preserve" xmlns="http://www.w3.org/2000/svg" xmlns:xlink="http://www.w3.org/1999/xlink"><style type="text/css">
	.st0{fill:#8D9CA0;}
	.st1{opacity:0.4;fill:#545454;}
	.st2{fill:#545454;}
	.st3{opacity:0.4;fill:#FFFFFF;}
</style><path class="st0" d="M3,31V20C3,13.421,8.224,9,16,9s13,4.421,13,11v11H3z"/><path class="st1" d="M28.959,19C28.461,12.906,23.434,9,16,9S3.539,12.906,3.041,19L3,20h3c0,2.209,1.791,4,4,4s4-1.791,4-4h4  c0,2.209,1.791,4,4,4s4-1.791,4-4h3L28.959,19z"/><path class="st2" d="M17,8.036V5h-2v3.036C7.189,8.409,2,13.112,2,20v12h28V20C30,13.112,24.811,8.409,17,8.036z M28,30H4V20  c0-6.075,4.71-10,12-10s12,3.925,12,10V30z"/><path class="st0" d="M19,3c0,1.65-1.35,3-3,3s-3-1.35-3-3c0-1.65,1.35-3,3-3S19,1.35,19,3z"/><circle class="st3" cx="15" cy="2" r="1.5"/><g><path class="st2" d="M15,20h-2c0,1.654-1.346,3-3,3s-3-1.346-3-3H5c0,2.757,2.243,5,5,5S15,22.757,15,20z"/><path class="st2" d="M22,23c-1.654,0-3-1.346-3-3h-2c0,2.757,2.243,5,5,5s5-2.243,5-5h-2C25,21.654,23.654,23,22,23z"/><path class="st2" d="M16,25c-2.347,0-3.575,1.16-3.707,1.293c-0.386,0.386-0.385,1.004-0.005,1.396   c0.378,0.393,1.009,0.403,1.408,0.029C13.727,27.689,14.481,27,16,27s2.273,0.689,2.293,0.707C18.488,27.902,18.744,28,19,28   s0.512-0.098,0.707-0.293c0.391-0.391,0.391-1.023,0-1.414C19.575,26.16,18.347,25,16,25z"/></g><g/><g/><g/><g/><g/><g/></svg>