<?xml version="1.0" ?><!DOCTYPE svg  PUBLIC '-//W3C//DTD SVG 1.1//EN'  'http://www.w3.org/Graphics/SVG/1.1/DTD/svg11.dtd'><svg height="32px" id="Capa_1" style="enable-background:new 0 0 32 32;" version="1.1" viewBox="0 0 32 32" width="32px" xml:space="preserve" xmlns="http://www.w3.org/2000/svg" xmlns:xlink="http://www.w3.org/1999/xlink"><style type="text/css">
	.st0{fill:#8D9CA0;}
	.st1{opacity:0.4;}
	.st2{fill:#545454;}
	.st3{fill:#38E0E0;}
	.st4{opacity:0.4;fill:#FFFFFF;}
</style><g><path class="st0" d="M3,31V20C3,13.421,8.224,9,16,9s13,4.421,13,11v11H3z"/><g class="st1"><path class="st2" d="M29,20h-3.54c-0.69-1.2-1.98-2-3.46-2s-2.77,0.8-3.46,2H3l0.04-1C3.54,12.91,8.57,9,16,9s12.46,3.91,12.96,10    L29,20z"/></g><path class="st2" d="M17,8.036V5h-2v3.036C7.189,8.409,2,13.112,2,20v12h28V20C30,13.112,24.811,8.409,17,8.036z M28,30H4V20   c0-6.075,4.71-10,12-10s12,3.925,12,10V30z"/><path class="st3" d="M14.5,20c0,2.484-2.016,4.5-4.5,4.5c-1.242,0-2.367-0.504-3.186-1.314C6.004,22.367,5.5,21.242,5.5,20   c0-2.484,2.016-4.5,4.5-4.5c1.242,0,2.367,0.504,3.186,1.314C13.996,17.633,14.5,18.758,14.5,20z"/><path class="st4" d="M13.186,16.814l-6.372,6.372C6.004,22.367,5.5,21.242,5.5,20c0-2.484,2.016-4.5,4.5-4.5   C11.242,15.5,12.367,16.004,13.186,16.814z"/><path class="st3" d="M19,3c0,1.65-1.35,3-3,3s-3-1.35-3-3c0-1.65,1.35-3,3-3S19,1.35,19,3z"/><circle class="st4" cx="15" cy="2" r="1.5"/></g><g><path class="st2" d="M22,17c-2.757,0-5,2.243-5,5h2c0-1.654,1.346-3,3-3s3,1.346,3,3h2C27,19.243,24.757,17,22,17z"/><path class="st2" d="M18.305,25.281C18.273,25.311,17.519,26,16,26c-1.497,0-2.251-0.67-2.303-0.717   c-0.392-0.38-1.017-0.378-1.404,0.01c-0.391,0.391-0.391,1.023,0,1.414C12.425,26.84,13.653,28,16,28s3.575-1.16,3.707-1.293   c0.386-0.386,0.385-1.004,0.006-1.396C19.332,24.919,18.704,24.908,18.305,25.281z"/></g><path class="st2" d="M10,17c1.654,0,3,1.346,3,3s-1.346,3-3,3s-3-1.346-3-3S8.346,17,10,17 M10,15c-2.761,0-5,2.239-5,5s2.239,5,5,5  s5-2.239,5-5S12.761,15,10,15L10,15z"/><g/><g/><g/><g/><g/><g/></svg>